<?xml version="1.0" encoding="UTF-8" standalone="no"?>
<!-- Created with Inkscape (http://www.inkscape.org/) -->

<svg
   xmlns:dc="http://purl.org/dc/elements/1.1/"
   xmlns:cc="http://creativecommons.org/ns#"
   xmlns:rdf="http://www.w3.org/1999/02/22-rdf-syntax-ns#"
   xmlns:svg="http://www.w3.org/2000/svg"
   xmlns="http://www.w3.org/2000/svg"
   xmlns:sodipodi="http://sodipodi.sourceforge.net/DTD/sodipodi-0.dtd"
   xmlns:inkscape="http://www.inkscape.org/namespaces/inkscape"
   width="297mm"
   height="210mm"
   viewBox="0 0 297 210"
   version="1.1"
   id="svg16"
   inkscape:version="0.92.1 r"
   sodipodi:docname="grass.svg">
  <defs
     id="defs10" />
  <sodipodi:namedview
     id="base"
     pagecolor="#ffffff"
     bordercolor="#666666"
     borderopacity="1.0"
     inkscape:pageopacity="0.0"
     inkscape:pageshadow="2"
     inkscape:zoom="1.4"
     inkscape:cx="725.82852"
     inkscape:cy="428.64628"
     inkscape:document-units="mm"
     inkscape:current-layer="layer1"
     showgrid="false"
     inkscape:window-width="1366"
     inkscape:window-height="713"
     inkscape:window-x="0"
     inkscape:window-y="27"
     inkscape:window-maximized="1" />
  <metadata
     id="metadata13">
    <rdf:RDF>
      <cc:Work
         rdf:about="">
        <dc:format>image/svg+xml</dc:format>
        <dc:type
           rdf:resource="http://purl.org/dc/dcmitype/StillImage" />
        <dc:title></dc:title>
      </cc:Work>
    </rdf:RDF>
  </metadata>
  <g
     inkscape:label="Layer 1"
     inkscape:groupmode="layer"
     id="layer1"
     transform="translate(0,-87)">
    <g
       id="g137"
       transform="translate(-6.9925595,32.316964)">
      <path
         d="m 217.03949,163.81753 c -2.56016,4.65376 -2.42915,9.30715 -2.0128,13.96091 -4.09131,2.48329 -3.0361,-7.00842 -2.51199,-12.29848 -2.83467,5.43322 -2.97099,8.84253 -3.95066,12.88449 -5.21825,-1.86023 -5.87106,-6.95447 -5.08031,-13.07104 0,0 -3.19889,5.1536 -1.80092,13.07931 -2.06935,-4.17036 -4.10697,-5.98517 -2.64687,-11.46649 -3.39513,3.06408 -4.21734,6.98562 -4.26744,11.1647 -0.10557,-7.4924 -2.74009,-9.64602 -4.62814,-13.37542 -0.0152,4.11964 1.73407,9.29784 -0.26407,12.22768 v 3.88349 h 82.19085 v -3.37706 c -1.0834,-3.93532 -1.02871,-10.1092 -0.76791,-13.61209 -2.56016,4.65376 -2.42863,9.30715 -2.01228,13.96091 -4.09131,2.48329 -3.0361,-7.00842 -2.51199,-12.29848 -2.83467,5.43322 -2.97101,8.84253 -3.95067,12.88449 -5.21822,-1.86023 -5.87106,-6.95447 -5.08031,-13.07104 0,0 -3.19941,5.1536 -1.80144,13.07931 -2.06934,-4.17036 -4.10644,-5.98517 -2.64635,-11.46649 -3.39511,3.06408 -4.21734,6.98562 -4.26744,11.1647 -0.10558,-7.4924 -2.74008,-9.64602 -4.62814,-13.37542 -0.0183,4.97553 2.54247,11.49876 -2.04122,13.73508 -2.93621,2.1389 -3.09125,-5.17733 -3.77341,-10.70219 5.3e-4,-0.40145 -2.6e-4,-0.79828 0.002,-1.20354 -0.038,0.11498 -0.075,0.23291 -0.11163,0.35243 -0.0321,-0.22813 -0.0653,-0.45336 -0.10025,-0.67179 l 0.006,0.98909 c -1.21739,4.22561 -1.70511,10.74495 -4.51394,9.9689 -1.33918,-2.1274 -0.95355,-6.26685 -0.84956,-10.07794 -1.58757,5.34658 -2.5932,9.65279 -5.93866,11.98583 0.0601,-5.04753 -2.78646,-10.65147 -3.02514,-14.02757 -1.07901,3.48518 -0.84866,11.6948 -4.95163,15.17996 -2.39621,-2.80694 -2.40251,-11.85899 -2.06396,-16.40624 z m -54.50419,0 c -2.56016,4.65376 -2.42915,9.30715 -2.0128,13.96091 -4.09131,2.48329 -3.0361,-7.00842 -2.51199,-12.29848 -2.83467,5.43322 -2.97099,8.84253 -3.95066,12.88449 -5.21825,-1.86023 -5.87107,-6.95447 -5.08031,-13.07104 0,0 -3.1989,5.1536 -1.80093,13.07931 -2.06935,-4.17036 -4.10697,-5.98517 -2.64687,-11.46649 -3.39513,3.06408 -4.21733,6.98562 -4.26744,11.1647 -0.10556,-7.4924 -2.74009,-9.64602 -4.62814,-13.37542 -0.0152,4.11964 1.73407,9.29784 -0.26406,12.22768 v 3.88349 h 82.19085 v -3.37706 c -1.0834,-3.93532 -1.02871,-10.1092 -0.76792,-13.61209 -2.56016,4.65376 -2.42863,9.30715 -2.01228,13.96091 -4.09131,2.48329 -3.0361,-7.00842 -2.51199,-12.29848 -2.83467,5.43322 -2.971,8.84253 -3.95066,12.88449 -5.21822,-1.86023 -5.87106,-6.95447 -5.08031,-13.07104 0,0 -3.19941,5.1536 -1.80144,13.07931 -2.06934,-4.17036 -4.10644,-5.98517 -2.64635,-11.46649 -3.39511,3.06408 -4.21734,6.98562 -4.26744,11.1647 -0.10558,-7.4924 -2.74008,-9.64602 -4.62814,-13.37542 -0.0183,4.97553 2.54247,11.49876 -2.04122,13.73508 -2.93621,2.1389 -3.09126,-5.17733 -3.77341,-10.70219 5.2e-4,-0.40145 -2.7e-4,-0.79828 0.002,-1.20354 -0.038,0.11498 -0.075,0.23291 -0.11162,0.35243 -0.0321,-0.22813 -0.0654,-0.45336 -0.10025,-0.67179 l 0.006,0.98909 c -1.21739,4.22561 -1.70511,10.74495 -4.51394,9.9689 -1.33918,-2.1274 -0.95355,-6.26685 -0.84956,-10.07794 -1.58757,5.34658 -2.59319,9.65279 -5.93865,11.98583 0.0601,-5.04753 -2.78646,-10.65147 -3.02514,-14.02757 -1.07901,3.48518 -0.84867,11.6948 -4.95164,15.17996 -2.39621,-2.80694 -2.4025,-11.85899 -2.06395,-16.40624 z"
         style="fill:#008000;stroke-width:0.08884175"
         id="path123"
         inkscape:connector-curvature="0" />
      <path
         d="m 199.84158,163.81753 c -2.56016,4.65376 -2.42914,9.30715 -2.0128,13.96091 -4.09131,2.48329 -3.0361,-7.00842 -2.51199,-12.29848 -2.83467,5.43322 -2.971,8.84253 -3.95067,12.88449 -0.54646,-0.19481 -1.03991,-0.4272 -1.48983,-0.6904 v 3.13263 h 82.19085 v -3.7698 c -0.33218,0.18895 -0.70625,0.24544 -1.13637,0.12661 -1.33917,-2.1274 -0.95355,-6.26685 -0.84955,-10.07794 -1.58757,5.34658 -2.5932,9.65278 -5.93866,11.98583 0.0601,-5.04753 -2.78697,-10.65147 -3.02566,-14.02757 -1.07901,3.48518 -0.84814,11.6948 -4.95111,15.17996 -2.39622,-2.80694 -2.40303,-11.85899 -2.06448,-16.40624 -2.56016,4.65376 -2.42864,9.30715 -2.01228,13.96091 -4.09132,2.48329 -3.03611,-7.00842 -2.51199,-12.29848 -2.83468,5.43322 -2.97099,8.84253 -3.95066,12.88449 -5.21821,-1.86023 -5.87105,-6.95447 -5.08031,-13.07104 0,0 -3.1994,5.15359 -1.80144,13.07931 -2.06933,-4.17036 -4.10644,-5.98517 -2.64635,-11.46649 -3.39511,3.06408 -4.21733,6.98562 -4.26744,11.1647 -0.10557,-7.4924 -2.74009,-9.64602 -4.62814,-13.37542 -0.0184,4.97553 2.54247,11.49876 -2.04122,13.73508 -2.93621,2.13891 -3.09126,-5.17733 -3.77342,-10.70219 5.3e-4,-0.40145 -5.3e-4,-0.79828 0.002,-1.20354 -0.038,0.11498 -0.075,0.23291 -0.11162,0.35243 -0.0321,-0.22813 -0.0653,-0.45336 -0.10025,-0.67179 l 0.006,0.98909 c -1.21739,4.22561 -1.70511,10.74494 -4.51394,9.9689 -1.33917,-2.1274 -0.95355,-6.26685 -0.84956,-10.07794 -1.58756,5.34658 -2.59319,9.65278 -5.93865,11.98583 0.0601,-5.04753 -2.78646,-10.65147 -3.02514,-14.02757 -1.07901,3.48518 -0.84867,11.6948 -4.95164,15.17996 -2.39621,-2.80694 -2.40251,-11.85899 -2.06396,-16.40624 z m 75.80777,2.70733 c -0.0178,0.0537 -0.0337,0.11327 -0.0512,0.16795 h 0.0512 c 2.7e-4,-0.0568 -2.6e-4,-0.11111 0,-0.16795 z m -130.31197,-2.70733 c -2.56015,4.65376 -2.42914,9.30715 -2.0128,13.96091 -4.09131,2.48329 -3.0361,-7.00842 -2.51199,-12.29848 -2.83467,5.43322 -2.97099,8.84253 -3.95066,12.88449 -0.54647,-0.19481 -1.03992,-0.4272 -1.48983,-0.6904 v 3.13263 h 82.19085 v -3.7698 c -0.33219,0.18895 -0.70625,0.24544 -1.13637,0.12661 -1.33917,-2.1274 -0.95355,-6.26685 -0.84956,-10.07794 -1.58756,5.34658 -2.5932,9.65278 -5.93866,11.98583 0.0601,-5.04753 -2.78697,-10.65147 -3.02565,-14.02757 -1.07901,3.48518 -0.84815,11.6948 -4.95112,15.17996 -2.39622,-2.80694 -2.40302,-11.85899 -2.06447,-16.40624 -2.56016,4.65376 -2.42864,9.30715 -2.01228,13.96091 -4.09132,2.48329 -3.03611,-7.00842 -2.512,-12.29848 -2.83468,5.43322 -2.97099,8.84253 -3.95066,12.88449 -5.21821,-1.86023 -5.87105,-6.95447 -5.08031,-13.07104 0,0 -3.1994,5.15359 -1.80144,13.07931 -2.06933,-4.17036 -4.10644,-5.98517 -2.64635,-11.46649 -3.39511,3.06408 -4.21733,6.98562 -4.26744,11.1647 -0.10557,-7.4924 -2.74008,-9.64602 -4.62814,-13.37542 -0.0184,4.97553 2.54247,11.49876 -2.04122,13.73508 -2.93621,2.13891 -3.09125,-5.17733 -3.77341,-10.70219 5.3e-4,-0.40145 -5.3e-4,-0.79828 0.002,-1.20354 -0.038,0.11498 -0.075,0.23291 -0.11163,0.35243 -0.0321,-0.22813 -0.0653,-0.45336 -0.10025,-0.67179 l 0.006,0.98909 c -1.21739,4.22561 -1.7051,10.74494 -4.51393,9.9689 -1.33917,-2.1274 -0.95355,-6.26685 -0.84956,-10.07794 -1.58756,5.34658 -2.5932,9.65278 -5.93866,11.98583 0.0601,-5.04753 -2.78646,-10.65147 -3.02514,-14.02757 -1.07901,3.48518 -0.84866,11.6948 -4.95163,15.17996 -2.39621,-2.80694 -2.40251,-11.85899 -2.06396,-16.40624 z m 75.80778,2.70733 c -0.0178,0.0537 -0.0337,0.11327 -0.0512,0.16795 h 0.0512 c 2.6e-4,-0.0568 -2.7e-4,-0.11111 0,-0.16795 z"
         style="fill:#00ff00;stroke-width:0.08884175"
         id="path125"
         inkscape:connector-curvature="0" />
    </g>
  </g>
</svg>
