<?xml version="1.0" encoding="UTF-8" standalone="no"?>
<!-- Created with Inkscape (http://www.inkscape.org/) -->

<svg
   xmlns:dc="http://purl.org/dc/elements/1.1/"
   xmlns:cc="http://creativecommons.org/ns#"
   xmlns:rdf="http://www.w3.org/1999/02/22-rdf-syntax-ns#"
   xmlns:svg="http://www.w3.org/2000/svg"
   xmlns="http://www.w3.org/2000/svg"
   xmlns:sodipodi="http://sodipodi.sourceforge.net/DTD/sodipodi-0.dtd"
   xmlns:inkscape="http://www.inkscape.org/namespaces/inkscape"
   width="480.00003"
   height="100.14281"
   viewBox="0 0 127.00001 26.496119"
   version="1.1"
   id="svg16"
   inkscape:version="0.92.1 r"
   sodipodi:docname="grass.svg"
   inkscape:export-filename="/home/axykon/go/src/github.com/axykon/tg/res/grass.png"
   inkscape:export-xdpi="48"
   inkscape:export-ydpi="48">
  <defs
     id="defs10" />
  <sodipodi:namedview
     id="base"
     pagecolor="#ffffff"
     bordercolor="#666666"
     borderopacity="1.0"
     inkscape:pageopacity="0.0"
     inkscape:pageshadow="2"
     inkscape:zoom="1.4"
     inkscape:cx="252.71486"
     inkscape:cy="14.104986"
     inkscape:document-units="px"
     inkscape:current-layer="layer1"
     showgrid="false"
     inkscape:window-width="1366"
     inkscape:window-height="713"
     inkscape:window-x="0"
     inkscape:window-y="27"
     inkscape:window-maximized="1"
     inkscape:showpageshadow="false"
     fit-margin-top="0"
     fit-margin-left="0"
     fit-margin-right="0"
     fit-margin-bottom="0"
     units="px" />
  <metadata
     id="metadata13">
    <rdf:RDF>
      <cc:Work
         rdf:about="">
        <dc:format>image/svg+xml</dc:format>
        <dc:type
           rdf:resource="http://purl.org/dc/dcmitype/StillImage" />
        <dc:title></dc:title>
      </cc:Work>
    </rdf:RDF>
  </metadata>
  <g
     inkscape:label="Layer 1"
     inkscape:groupmode="layer"
     id="layer1"
     transform="translate(-128.37954,-195.13206)">
    <g
       id="g4534">
      <path
         d="m 204.2545,195.13206 c -2.37857,4.34853 -2.25685,8.69673 -1.87003,13.04528 -3.80114,2.32042 -2.82076,-6.54877 -2.33384,-11.49188 -2.6336,5.07687 -2.76026,8.26259 -3.67044,12.03944 -4.84815,-1.73821 -5.45463,-6.49835 -4.71997,-12.21376 0,0 -2.97202,4.81559 -1.67318,12.2215 -1.9226,-3.89685 -3.81567,-5.59263 -2.45913,-10.71446 -3.15434,2.86311 -3.91824,6.52747 -3.96478,10.43246 -0.098,-7.00101 -2.54576,-9.01339 -4.29987,-12.4982 -0.014,3.84945 1.61105,8.68805 -0.24534,11.42574 v 3.62878 h 76.36128 v -3.15558 c -1.00656,-3.67721 -0.95574,-9.44618 -0.71344,-12.71932 -2.37858,4.34853 -2.25636,8.69673 -1.86954,13.04528 -3.80115,2.32042 -2.82075,-6.54877 -2.33381,-11.49188 -2.63364,5.07687 -2.7603,8.26259 -3.67048,12.03944 -4.84809,-1.73821 -5.45465,-6.49835 -4.71997,-12.21376 0,0 -2.9725,4.81559 -1.67368,12.2215 -1.92256,-3.89685 -3.81518,-5.59263 -2.45864,-10.71446 -3.15431,2.86311 -3.91823,6.52747 -3.96477,10.43246 -0.098,-7.00101 -2.54574,-9.01339 -4.29988,-12.4982 -0.018,4.64921 2.36214,10.74463 -1.89646,12.83428 -2.72795,1.99862 -2.87197,-4.83779 -3.50575,-10.00028 4.8e-4,-0.37514 -2.6e-4,-0.74594 0.002,-1.12462 -0.0354,0.1074 -0.0696,0.21764 -0.1038,0.32932 -0.0298,-0.21316 -0.0606,-0.42362 -0.093,-0.62774 l 0.006,0.92424 c -1.13104,3.94845 -1.58416,10.04022 -4.19378,9.31508 -1.24419,-1.98787 -0.88591,-5.85585 -0.78929,-9.41698 -1.47496,4.99593 -2.40928,9.0197 -5.51746,11.19974 0.0558,-4.71649 -2.58883,-9.95291 -2.81057,-13.10758 -1.00248,3.25661 -0.78846,10.9278 -4.60042,14.18438 -2.22626,-2.62284 -2.23212,-11.08121 -1.91758,-15.33022 z m -50.63837,0 c -2.37856,4.34853 -2.25684,8.69673 -1.87004,13.04528 -3.80113,2.32042 -2.82076,-6.54877 -2.33382,-11.49188 -2.63363,5.07687 -2.76025,8.26259 -3.67043,12.03944 -4.84816,-1.73821 -5.45468,-6.49835 -4.72002,-12.21376 0,0 -2.97199,4.81559 -1.67317,12.2215 -1.92258,-3.89685 -3.8157,-5.59263 -2.45914,-10.71446 -3.15434,2.86311 -3.91822,6.52747 -3.96478,10.43246 -0.098,-7.00101 -2.54573,-9.01339 -4.29987,-12.4982 -0.014,3.84945 1.61108,8.68805 -0.24532,11.42574 v 3.62878 h 76.3613 v -3.15558 c -1.00658,-3.67721 -0.95574,-9.44618 -0.71346,-12.71932 -2.37857,4.34853 -2.25637,8.69673 -1.86955,13.04528 -3.80114,2.32042 -2.82076,-6.54877 -2.33382,-11.49188 -2.63362,5.07687 -2.76028,8.26259 -3.67046,12.03944 -4.84809,-1.73821 -5.45463,-6.49835 -4.71997,-12.21376 0,0 -2.9725,4.81559 -1.67368,12.2215 -1.92256,-3.89685 -3.81517,-5.59263 -2.45863,-10.71446 -3.15432,2.86311 -3.91824,6.52747 -3.96478,10.43246 -0.098,-7.00101 -2.54574,-9.01339 -4.29987,-12.4982 -0.018,4.64921 2.36213,10.74463 -1.89644,12.83428 -2.72798,1.99862 -2.87202,-4.83779 -3.50578,-10.00028 4.8e-4,-0.37514 -2.6e-4,-0.74594 0.002,-1.12462 -0.0352,0.1074 -0.0696,0.21764 -0.1036,0.32932 -0.0298,-0.21316 -0.0608,-0.42362 -0.093,-0.62774 l 0.006,0.92424 c -1.13106,3.94845 -1.58418,10.04022 -4.19377,9.31508 -1.24422,-1.98787 -0.88594,-5.85585 -0.7893,-9.41698 -1.47498,4.99593 -2.40928,9.0197 -5.51745,11.19974 0.0558,-4.71649 -2.58882,-9.95291 -2.81058,-13.10758 -1.00248,3.25661 -0.78846,10.9278 -4.60043,14.18438 -2.22626,-2.62284 -2.2321,-11.08121 -1.91756,-15.33022 z"
         style="fill:#008000;stroke-width:0.08277742"
         id="path123"
         inkscape:connector-curvature="0" />
      <path
         inkscape:connector-curvature="0"
         inkscape:export-ydpi="59.802895"
         inkscape:export-xdpi="59.802895"
         inkscape:export-filename="/home/axykon/tmp/grass.png"
         id="path125"
         d="m 137.63757,195.16985 c -2e-5,3.2e-4 2e-5,6.8e-4 0,9.8e-4 1.8e-4,-3.2e-4 3e-4,-6.6e-4 4.8e-4,-9.8e-4 z m 0,9.8e-4 c -2.37803,4.34821 -2.25635,8.69609 -1.86955,13.0443 -3.80114,2.32042 -2.82077,-6.54877 -2.33385,-11.49186 -2.63361,5.07687 -2.76027,8.26257 -3.67046,12.03944 -0.5077,-0.182 -0.96616,-0.39918 -1.38416,-0.64512 v 2.92718 h 76.36152 50.63848 v -3.52256 c -0.30862,0.1766 -0.65614,0.22934 -1.05574,0.1184 -1.24423,-1.98787 -0.88596,-5.85583 -0.78934,-9.41696 -1.47497,4.99591 -2.40927,9.0197 -5.51743,11.19974 0.0558,-4.71649 -2.58933,-9.95291 -2.81107,-13.10758 -1.0025,3.25661 -0.78802,10.92778 -4.59998,14.18438 -2.22627,-2.62286 -2.23259,-11.08121 -1.91805,-15.33024 -2.37858,4.34855 -2.2564,8.69675 -1.86956,13.04528 -3.80114,2.32042 -2.82078,-6.54877 -2.33382,-11.49186 -2.63365,5.07687 -2.76027,8.26257 -3.67047,12.03944 -4.8481,-1.73821 -5.45466,-6.49835 -4.71998,-12.21376 0,0 -2.97249,4.81557 -1.67369,12.22148 -1.92256,-3.89683 -3.81519,-5.59261 -2.45866,-10.71444 -3.1543,2.86311 -3.91821,6.52745 -3.96477,10.43246 -0.098,-7.00103 -2.54574,-9.01339 -4.29991,-12.4982 -0.018,4.64921 2.36217,10.74463 -1.89644,12.83426 -2.72794,1.99864 -2.872,-4.83777 -3.50578,-10.00028 5e-4,-0.37512 -9e-4,-0.74592 0.001,-1.1246 -0.0354,0.1074 -0.0696,0.21764 -0.1036,0.32932 -0.0298,-0.21318 -0.0606,-0.42364 -0.093,-0.62774 l 0.006,0.92422 c -0.99893,3.48725 -1.47017,8.64347 -3.36415,9.30156 v -0.1048 c -0.1642,0.094 -0.33996,0.1516 -0.52812,0.1694 -0.0974,-0.008 -0.19721,-0.0222 -0.30153,-0.0512 -1.24419,-1.98787 -0.88591,-5.85583 -0.78931,-9.41696 -0.0886,0.30036 -0.171,0.5852 -0.25636,0.87834 0.01,-0.2931 0.0224,-0.58812 0.0302,-0.87834 -1.43852,4.87247 -2.36407,8.81958 -5.29229,11.0341 -0.006,-4.67311 -2.59046,-9.82405 -2.80962,-12.94194 -0.057,0.1854 -0.1098,0.38682 -0.1598,0.59926 -0.0302,-0.2069 -0.0532,-0.4072 -0.0668,-0.59926 -0.9905,3.21761 -0.79568,10.7419 -4.46747,14.0627 -2.13091,-2.74912 -2.13387,-11.01979 -1.82395,-15.20758 -0.09,0.1646 -0.1758,0.32928 -0.25878,0.49398 0.01,-0.1666 0.0206,-0.33914 0.0322,-0.49496 -2.37858,4.34855 -2.25638,8.69675 -1.86956,13.04528 -0.3781,0.23084 -0.7085,0.34902 -0.99718,0.37326 -2.33705,-0.23514 -1.53536,-7.54747 -1.11002,-11.86512 -0.0994,0.1918 -0.1888,0.37596 -0.28134,0.56254 0.018,-0.182 0.0378,-0.38946 0.0546,-0.56254 -2.61481,5.04059 -2.75901,8.21767 -3.65173,11.95928 -0.42508,-0.165 -0.81668,-0.35338 -1.17628,-0.56496 v 0.129 c -3.78303,-2.05007 -4.23387,-6.47417 -3.56245,-11.69756 0,0 -2.97248,4.81557 -1.67368,12.22148 -1.92257,-3.89683 -3.81518,-5.59261 -2.45866,-10.71444 -3.15431,2.86311 -3.91821,6.52745 -3.96477,10.43246 -0.098,-7.00103 -2.54575,-9.01339 -4.29988,-12.4982 -0.018,4.64921 2.36214,10.74463 -1.89647,12.83426 -2.72794,1.99864 -2.87199,-4.83777 -3.50579,-10.00028 5e-4,-0.37512 -9e-4,-0.74592 0.001,-1.1246 -0.0354,0.1074 -0.0696,0.21764 -0.1038,0.32932 -0.0298,-0.21318 -0.0606,-0.42364 -0.093,-0.62774 l 0.006,0.92422 c -1.13106,3.94847 -1.58417,10.04022 -4.1938,9.31508 -1.24418,-1.98787 -0.88592,-5.85583 -0.7893,-9.41696 -1.47497,4.99591 -2.40927,9.0197 -5.51747,11.19974 0.0558,-4.71649 -2.58882,-9.95291 -2.81059,-13.10758 -1.00246,3.25661 -0.78846,10.92778 -4.60042,14.18438 -2.2261,-2.62266 -2.23204,-11.07995 -1.91758,-15.32926 z m 50.63849,0 c 1.6e-4,-3.2e-4 3e-4,-6.6e-4 4.8e-4,-9.8e-4 h -4.8e-4 c -4e-5,3.2e-4 2e-5,6.8e-4 0,9.8e-4 z m 19.79314,2.5288 c -0.016,0.0502 -0.0318,0.1058 -0.048,0.157 h 0.048 c 2.6e-4,-0.053 -2.4e-4,-0.1038 0,-0.157 z"
         style="fill:#00ff00;stroke-width:0.08277754" />
      <rect
         y="211.04485"
         x="128.37955"
         height="10.583333"
         width="127"
         id="rect4495"
         style="fill:#008000;stroke-width:0.23708941" />
    </g>
  </g>
</svg>
